<svg xmlns="http://www.w3.org/2000/svg" viewBox="0 0 320 104" width="320" height="104">
  <path fill="#1A1F71" d="M125.79 0l-19.16 99.88h30.63L156.4 0h-30.61zm83.35 0c-6.84 0-17.7 1.83-26.68 6.44l-4.75 22.84c8.47-3.95 19.17-6.03 29.56-6.03 10.23 0 13.55 3.1 13.55 8.1 0 11.23-41.97 9.87-41.97 34.52 0 12.3 10.5 21.05 31.7 21.05 10.2 0 19.34-2.14 26.64-5.6l4.98-23.77c-6.28 2.87-16.14 5.3-25.7 5.3-9.52 0-14.44-2.78-14.44-7.8 0-10.87 41.96-10.4 41.96-34.8C244 5.8 230.14 0 209.14 0zM302.58 0h-24.1c-5.8 0-10.3 2.76-12.82 8.08l-36.27 83.5 32.14-8.3 5.4-15.35h39.3l3.77 18.06h29.5L302.58 0zm-18.78 43.14l9.46-25.96 5.44 26.68-14.9-.72zM94.66 0L67.14 68.3 64 53.64C61.4 43.9 52 35.8 38 31.05L65.4 99.88h32.1l48.24-99.88H114.2l-19.54 0zM0 0v16.12c14.28 0 24 3.96 31 10.2l15.54 73.56H78.1L62 0H0z" />
</svg>
